<?xml version="1.0" standalone="no"?>
<!DOCTYPE svg PUBLIC "-//W3C//DTD SVG 20010904//EN"
 "http://www.w3.org/TR/2001/REC-SVG-20010904/DTD/svg10.dtd">
<svg version="1.0" xmlns="http://www.w3.org/2000/svg"
 width="640.000000pt" height="640.000000pt" viewBox="0 0 640.000000 640.000000"
 preserveAspectRatio="xMidYMid meet">
<metadata>
Created by potrace 1.11, written by Peter Selinger 2001-2013
</metadata>
<g transform="translate(0.000000,640.000000) scale(0.100000,-0.100000)"
fill="#000000" stroke="none">
<path d="M3188 6265 c-1 -1 -28 -5 -58 -9 -116 -12 -253 -65 -332 -127 -21
-17 -79 -79 -130 -137 -100 -117 -314 -333 -393 -399 -173 -142 -267 -225
-313 -275 l-54 -57 -61 46 c-140 103 -311 164 -462 165 -49 0 -110 -5 -135
-12 -25 -7 -53 -14 -64 -16 -26 -5 -111 -50 -166 -88 -114 -78 -243 -241 -333
-421 -157 -312 -193 -598 -110 -875 27 -90 97 -244 123 -270 3 -3 19 -25 35
-50 17 -25 70 -85 118 -135 l88 -89 -94 -91 c-74 -71 -211 -226 -265 -300 -9
-12 -92 -142 -109 -170 -31 -52 -99 -200 -133 -290 -83 -219 -119 -429 -114
-660 4 -187 23 -300 76 -459 54 -162 101 -256 204 -411 249 -375 656 -674
1174 -862 215 -78 493 -148 713 -178 20 -3 54 -7 75 -11 20 -3 60 -7 87 -10
28 -3 66 -7 85 -9 170 -18 526 -24 750 -11 200 11 326 22 342 32 7 5 8 3 3 -6
-5 -8 -4 -11 2 -7 5 3 34 9 64 12 30 3 70 7 89 10 73 8 136 16 165 20 40 5
273 43 305 50 14 3 39 8 55 10 17 3 37 8 45 10 8 2 30 7 49 10 19 3 65 14 103
25 38 10 69 19 71 18 5 -1 94 24 117 33 14 5 34 11 45 13 68 14 278 97 410
163 401 202 675 486 834 868 54 131 61 149 66 170 2 11 13 46 24 77 61 176 71
569 19 798 -5 25 -12 59 -15 75 -14 84 -119 370 -150 406 -7 8 -13 20 -13 25
0 14 -129 209 -171 259 -46 56 -207 215 -249 247 l-34 27 72 72 c104 103 165
188 226 314 82 168 101 250 100 445 0 187 -24 309 -95 475 -7 17 -13 32 -14
35 0 3 -20 43 -44 90 -125 246 -297 421 -481 489 -122 45 -282 47 -399 6 -22
-7 -42 -11 -45 -8 -3 4 -6 1 -6 -5 0 -7 -7 -12 -15 -12 -22 0 -120 -51 -190
-99 l-60 -41 -25 28 c-14 15 -41 47 -60 71 -19 25 -46 57 -60 72 -14 16 -36
43 -50 60 -52 67 -320 405 -333 419 -7 8 -42 54 -76 102 -76 106 -110 142
-181 194 -89 66 -223 121 -339 140 -18 3 -43 8 -55 10 -25 6 -243 14 -248 9z
m234 -249 c74 -10 196 -56 262 -98 31 -20 86 -79 115 -123 14 -22 28 -42 31
-45 4 -3 19 -23 36 -45 16 -22 36 -49 46 -60 9 -11 89 -112 179 -225 89 -113
165 -207 168 -210 3 -3 44 -52 91 -110 46 -58 115 -142 152 -187 l69 -83 22
21 c60 57 94 78 105 67 7 -7 12 -8 12 -2 0 24 196 154 255 168 6 2 17 6 25 9
56 25 173 27 240 6 96 -31 204 -120 274 -225 21 -33 47 -70 56 -84 45 -68 134
-285 146 -360 3 -14 7 -32 10 -40 12 -34 15 -211 5 -278 -20 -128 -63 -231
-147 -348 -38 -54 -71 -88 -191 -202 -17 -15 -29 -20 -36 -14 -23 19 -236 122
-251 122 -9 0 -16 -8 -16 -19 0 -10 -7 -24 -15 -31 -8 -7 -15 -20 -15 -30 0
-9 -3 -19 -6 -23 -3 -3 -17 -28 -29 -56 l-24 -50 125 -62 c68 -34 133 -69 144
-78 10 -9 44 -31 75 -50 30 -18 55 -37 55 -42 0 -4 9 -10 19 -14 26 -8 218
-196 271 -265 99 -129 173 -268 227 -428 19 -58 37 -117 39 -131 3 -14 9 -42
14 -61 8 -34 18 -107 25 -185 6 -57 5 -272 0 -320 -2 -22 -7 -60 -10 -84 -6
-48 -65 -236 -96 -308 -10 -24 -19 -47 -20 -51 -2 -15 -64 -127 -71 -130 -5
-2 -8 -8 -8 -13 0 -12 -60 -104 -110 -169 -90 -115 -273 -273 -390 -336 -19
-10 -37 -22 -40 -25 -3 -3 -48 -26 -100 -51 -184 -90 -394 -162 -619 -213 -67
-16 -315 -65 -351 -70 -25 -3 -54 -8 -65 -9 -11 -2 -45 -6 -75 -10 -30 -4 -66
-9 -80 -11 -48 -8 -106 -15 -170 -20 -36 -2 -88 -7 -117 -10 -300 -32 -817
-38 -1006 -10 -18 2 -54 7 -82 9 -84 8 -195 25 -275 41 -14 3 -38 8 -55 11
-16 3 -50 10 -75 15 -25 6 -52 12 -60 14 -14 3 -41 10 -186 50 -83 23 -271 94
-379 143 -103 47 -278 143 -306 168 -8 8 -19 14 -22 14 -4 0 -51 33 -104 74
-278 211 -466 456 -572 744 -17 45 -30 83 -30 85 1 1 -4 20 -10 42 -5 22 -13
55 -16 73 -3 17 -8 47 -11 65 -3 17 -7 85 -9 150 -3 106 1 166 20 292 9 60 64
252 92 320 26 63 103 223 115 240 5 6 31 46 60 90 29 44 54 82 57 85 4 3 28
32 55 65 70 84 217 226 306 293 41 31 77 60 78 65 2 4 8 7 13 7 5 0 30 15 56
34 27 19 101 62 165 96 l117 61 -36 82 c-19 45 -41 94 -47 109 l-12 28 -80
-39 c-44 -21 -126 -66 -182 -101 l-102 -62 -48 40 c-133 113 -234 258 -281
403 -28 85 -34 133 -33 259 1 95 8 138 46 280 6 20 41 101 73 170 68 142 190
296 280 353 158 100 344 75 547 -74 l63 -47 -19 -73 c-15 -61 -26 -130 -30
-204 0 -5 2 -57 6 -115 6 -101 9 -132 20 -168 3 -9 8 -37 11 -62 4 -25 8 -46
9 -47 4 -5 221 40 228 46 4 3 0 40 -9 81 -25 113 -24 346 2 428 11 34 23 62
27 62 4 0 8 6 8 13 0 20 63 107 117 162 27 28 112 102 189 164 141 116 396
364 469 456 121 153 181 193 335 223 45 8 203 8 272 -2z"/>
<path d="M2720 5340 c-169 -52 -309 -195 -400 -408 -59 -140 -82 -335 -52
-444 9 -34 8 -37 -53 -101 -101 -106 -145 -209 -145 -337 0 -114 45 -236 125
-339 39 -50 150 -159 205 -199 l54 -41 68 102 c60 90 66 103 50 111 -28 16
-42 28 -122 107 -154 151 -181 285 -83 407 91 112 176 99 420 -66 67 -45 126
-82 131 -82 4 0 14 -6 21 -12 6 -7 15 -13 19 -14 4 0 27 -6 52 -13 68 -20 124
-25 255 -25 178 0 285 19 395 71 245 115 495 56 581 -137 14 -33 4 -114 -18
-144 -26 -35 -100 -81 -158 -97 -54 -15 -63 -16 -130 -18 l-45 -1 3 -117 2
-118 73 1 c75 1 218 30 228 45 3 5 12 9 19 9 26 0 117 62 162 110 135 143 152
334 44 505 -23 37 -99 117 -149 157 -17 14 -20 22 -13 40 5 13 12 46 16 73 4
28 8 61 10 75 6 36 6 271 1 296 -2 12 -7 39 -10 60 -36 228 -156 418 -313 496
-36 18 -71 33 -77 34 -6 2 -35 7 -65 13 -122 25 -267 1 -360 -58 -50 -32 -114
-95 -146 -144 l-17 -27 -25 38 c-39 57 -111 118 -185 157 -38 20 -68 34 -68
31 0 -3 -12 -1 -27 6 -47 18 -211 17 -273 -2z m255 -248 c58 -30 90 -62 129
-127 30 -49 62 -125 70 -168 9 -44 17 -86 20 -107 3 -23 7 -25 52 -24 27 1 82
2 123 3 58 1 72 4 68 15 -3 8 -3 16 -1 19 3 3 7 34 9 70 7 106 57 229 116 284
83 76 260 66 351 -20 70 -67 116 -181 134 -332 6 -51 5 -228 -2 -260 -6 -27
-9 -49 -13 -81 -1 -7 -37 -11 -108 -11 -60 1 -127 -3 -150 -7 -59 -10 -162
-44 -200 -66 -110 -64 -412 -76 -545 -22 -16 6 -28 15 -28 19 0 5 -12 14 -27
20 -16 7 -41 24 -57 38 -16 14 -33 25 -37 25 -4 0 -14 6 -21 14 -46 46 -256
136 -317 136 -37 0 -45 22 -45 121 0 80 16 141 61 239 46 98 109 177 172 214
66 40 179 43 246 8z"/>
<path d="M2976 4883 c-1 -2 -34 -4 -72 -4 -107 -2 -100 7 -98 -121 1 -62 3
-163 3 -225 l1 -112 120 1 120 2 -2 227 -3 227 -33 4 c-18 2 -34 3 -36 1z"/>
<path d="M3590 4877 c0 -2 -11 -55 -25 -118 -14 -63 -27 -123 -29 -134 -14
-72 -38 -180 -42 -186 -2 -4 22 -13 53 -19 32 -6 67 -14 78 -18 26 -8 44 -12
77 -17 31 -5 24 -27 104 350 2 11 7 33 10 49 2 16 7 33 10 37 5 8 -43 23 -106
33 -19 3 -53 10 -75 16 -44 10 -55 12 -55 7z"/>
<path d="M2722 3897 l-83 -83 28 -26 c15 -14 61 -60 102 -102 40 -42 77 -76
82 -76 12 0 174 158 168 164 -76 81 -202 206 -207 206 -4 0 -45 -37 -90 -83z"/>
<path d="M3620 3894 c-57 -45 -125 -102 -162 -134 l-28 -25 41 -45 c22 -25 54
-64 72 -87 18 -23 37 -43 43 -43 5 0 26 15 46 33 20 17 70 59 111 92 42 33 76
63 77 67 0 3 -9 17 -20 30 -26 30 -55 64 -93 111 -17 20 -34 37 -37 37 -3 0
-25 -16 -50 -36z"/>
<path d="M1418 2934 c-2 -1 -32 -5 -68 -8 -36 -3 -72 -7 -80 -9 -61 -16 -81
-22 -125 -40 -85 -35 -165 -94 -230 -169 -111 -128 -193 -367 -189 -553 3
-157 53 -346 125 -472 12 -21 27 -47 33 -58 15 -27 49 -79 56 -85 3 -3 21 -25
40 -50 73 -97 214 -225 325 -295 198 -127 563 -275 785 -320 8 -2 42 -10 75
-19 71 -18 244 -52 310 -61 58 -8 113 -16 135 -20 14 -2 50 -7 80 -10 30 -3
73 -8 95 -11 259 -30 813 -35 1025 -10 19 3 62 7 95 10 57 6 109 12 165 21 14
2 45 6 70 10 61 9 283 62 340 81 25 9 53 17 63 19 38 8 306 120 377 158 457
243 688 567 706 987 17 430 -191 733 -561 816 -98 22 -254 21 -356 -2 -10 -2
-29 -6 -41 -9 -28 -6 -245 -74 -273 -85 -63 -27 -371 -119 -413 -125 -15 -2
-38 -6 -52 -9 -100 -23 -204 -31 -420 -31 -252 0 -410 11 -585 41 -125 22
-122 21 -200 39 -38 9 -86 20 -105 24 -19 5 -79 20 -133 35 -53 15 -105 29
-115 31 -9 3 -51 14 -92 26 -141 40 -332 88 -410 104 -14 3 -36 7 -50 10 -30
6 -142 24 -190 31 -40 5 -208 12 -212 8z m187 -248 c130 -14 365 -66 539 -117
38 -11 78 -22 89 -25 11 -2 34 -8 51 -13 35 -12 339 -90 375 -97 12 -3 53 -12
89 -20 67 -16 81 -18 157 -29 22 -3 58 -8 80 -11 40 -6 72 -9 235 -22 175 -14
573 -7 665 12 11 2 40 7 65 11 91 14 250 58 445 123 239 79 200 67 315 98 215
57 403 19 532 -108 103 -101 151 -250 143 -440 -3 -57 -9 -121 -14 -143 -20
-82 -28 -111 -38 -130 -6 -11 -17 -33 -24 -50 -41 -93 -132 -206 -239 -300
-86 -75 -230 -158 -421 -243 -115 -51 -368 -127 -509 -152 -103 -19 -122 -22
-245 -35 -27 -3 -66 -8 -85 -10 -178 -22 -750 -22 -915 0 -16 2 -56 7 -88 9
-109 10 -172 18 -257 32 -47 8 -98 17 -115 19 -37 6 -71 13 -110 22 -16 4 -34
7 -40 8 -5 1 -23 5 -40 9 -16 4 -73 19 -125 31 -258 64 -512 170 -698 291
-144 94 -306 276 -373 419 -13 28 -24 52 -24 55 -1 3 -7 17 -13 33 -24 57 -43
164 -43 237 1 95 4 122 25 193 61 209 184 324 368 343 35 3 64 7 66 9 3 3 125
-3 177 -9z"/>
<path d="M1562 2373 c0 -5 -1 -15 -5 -23 -3 -8 -11 -32 -17 -52 -8 -26 -16
-35 -26 -31 -8 3 -14 9 -14 14 0 5 -4 9 -10 9 -5 0 -30 15 -56 32 -49 36 -44
37 -81 -19 -76 -113 -94 -143 -89 -152 4 -5 51 -38 106 -73 l99 -63 -5 -95
c-3 -52 -6 -121 -7 -152 l-2 -57 90 -3 c49 -2 105 -2 123 0 33 3 33 3 32 55
-1 29 -1 69 -1 89 l1 37 38 -15 c20 -9 51 -22 67 -29 58 -26 65 -24 87 29 10
28 30 74 44 104 24 52 24 72 2 72 -23 0 -188 84 -188 96 0 7 9 41 20 76 11 34
20 70 20 79 0 11 -26 23 -92 42 -118 35 -139 39 -136 30z"/>
<path d="M4580 2105 c-30 -20 -74 -47 -97 -62 -24 -15 -43 -31 -43 -35 0 -4
15 -32 34 -61 l34 -53 -36 -2 c-71 -5 -137 -18 -135 -28 2 -12 12 -93 19 -159
3 -27 8 -54 11 -58 5 -8 145 3 205 15 7 2 20 -29 33 -82 19 -72 25 -85 41 -82
43 6 200 45 207 51 4 4 -1 39 -12 79 l-19 72 82 25 c44 14 87 29 94 33 12 8 8
29 -15 92 -3 8 -7 20 -9 27 -1 7 -9 34 -18 61 l-17 50 -62 -20 c-34 -11 -74
-24 -89 -28 -28 -9 -39 -2 -52 34 -6 17 -96 166 -100 166 0 0 -26 -16 -56 -35z"/>
<path d="M2333 2108 c-11 -13 -57 -145 -58 -163 0 -12 -49 -14 -90 -4 -16 5
-46 11 -65 14 -19 3 -42 8 -52 11 -9 3 -19 1 -22 -4 -7 -12 -48 -223 -44 -226
4 -3 115 -27 148 -32 86 -14 85 -13 87 -100 1 -43 2 -91 2 -107 l1 -27 119 2
119 3 0 70 c0 39 0 75 1 80 1 7 29 5 84 -6 l82 -16 17 71 c9 39 20 92 23 118
8 53 13 49 -102 69 -85 15 -85 16 -48 110 24 60 24 65 8 76 -9 7 -22 13 -29
13 -7 0 -45 13 -85 30 -85 34 -83 34 -96 18z"/>
<path d="M3949 1996 c-2 -2 -22 -7 -44 -10 -22 -3 -59 -10 -82 -15 -24 -4 -43
-6 -43 -3 0 2 -6 -1 -13 -7 -11 -9 -11 -21 -1 -73 8 -35 14 -68 14 -74 0 -7
-32 -12 -91 -12 -51 -1 -93 -3 -95 -5 -4 -3 -8 -197 -5 -224 1 -10 31 -13 116
-13 111 0 115 -1 119 -22 5 -24 15 -95 22 -161 2 -21 6 -42 8 -46 3 -4 34 -4
68 1 87 12 119 16 146 17 21 1 22 5 18 44 -3 23 -8 67 -12 97 -3 30 -8 58 -11
63 -6 10 11 15 87 22 36 4 74 8 85 10 11 1 26 3 34 4 13 1 12 41 -6 181 -6 55
-10 62 -31 56 -10 -3 -55 -8 -102 -12 -47 -3 -89 -7 -94 -8 -9 -1 -15 22 -30
109 -3 17 -8 39 -10 50 -3 11 -5 23 -5 28 -1 7 -34 10 -42 3z"/>
<path d="M3219 1976 c-2 -2 -29 -6 -59 -9 -30 -4 -77 -9 -103 -13 l-48 -7 6
-68 6 -68 -68 5 c-37 3 -89 6 -114 8 -25 3 -51 1 -56 -2 -17 -11 -26 -232 -11
-233 152 -10 273 -21 277 -25 6 -6 16 -64 25 -159 3 -28 6 -30 46 -31 40 -1
163 17 185 27 6 2 10 11 9 19 -3 45 -15 124 -20 131 -6 10 -8 10 101 12 l80 2
0 105 c0 58 -1 112 -3 120 -2 12 -22 15 -105 13 -89 -1 -103 1 -103 15 -2 39
-16 147 -20 154 -5 8 -18 10 -25 4z"/>
</g>
</svg>
